# xmcd
#
# Track frame offsets: 
#        150
#        21484
#        45618
#        64541
#        91286
#        118449
#        141013
#        164436
#        195877
#        226799
#        248404
#        272625
#        294617
#
# Disc length: 4413 seconds
#
# Revision: 1
# Processed by: cddbd v1.5.2PL0 Copyright (c) Steve Scherf et al.
# Submitted via: ExactAudioCopy v0.99pb4
#
DISCID=b0113b0d
DTITLE=Bruce Springsteen - Los Angeles, 5-2-05(PBrock tape-Disc 2)
DYEAR=2005
DGENRE=Rock and Roll
TTITLE0=Reno
TTITLE1=Real World
TTITLE2=My Hometown
TTITLE3=The Rising
TTITLE4=Further On (Up The Road)
TTITLE5=Jesus Was An Only Son
TTITLE6=Leah
TTITLE7=The Hitter
TTITLE8=Matamoros Banks
TTITLE9=Johnny 99
TTITLE10=This Hard Land
TTITLE11=Waiting On A Sunny Day
TTITLE12=The Promised Land
EXTD=
EXTT0=
EXTT1=
EXTT2=
EXTT3=
EXTT4=
EXTT5=
EXTT6=
EXTT7=
EXTT8=
EXTT9=
EXTT10=
EXTT11=
EXTT12=
PLAYORDER=
